<?xml version="1.0" encoding="UTF-8" standalone="no"?>
<svg width="500px" height="500px" viewBox="0 0 500 500" version="1.1" xmlns="http://www.w3.org/2000/svg" xmlns:xlink="http://www.w3.org/1999/xlink">
    <!-- Generator: Sketch 3.8.3 (29802) - http://www.bohemiancoding.com/sketch -->
    <title>Logo 1</title>
    <desc>Created with Sketch.</desc>
    <defs>
        <path d="M287.965394,2.52651265 C307.686432,-4.65135821 322.432509,6.50160842 320.902883,27.420894 L304.246872,255.209823 C302.716707,276.136481 285.492911,298.918354 265.768165,306.097574 L33.6816389,390.570161 C13.9606008,397.748032 -0.785476445,386.595066 0.744149528,365.67578 L17.400161,137.886851 C18.9303261,116.960193 36.1541215,94.1783204 55.8788682,86.9990998 L287.965394,2.52651265 Z" id="path-1"></path>
        <mask id="mask-2" maskContentUnits="userSpaceOnUse" maskUnits="objectBoundingBox" x="0" y="0" width="320.376775" height="392.397922" fill="white">
            <use xlink:href="#path-1"></use>
        </mask>
        <mask id="mask-4" maskContentUnits="userSpaceOnUse" maskUnits="objectBoundingBox" x="0" y="0" width="320.376775" height="392.397922" fill="white">
            <use xlink:href="#path-1"></use>
        </mask>
    </defs>
    <g id="Page-1" stroke="none" stroke-width="1" fill="none" fill-rule="evenodd">
        <g id="Logo-1">
            <g id="Group" transform="translate(89.000000, 55.000000)">
                <mask id="mask-3" fill="white">
                    <use xlink:href="#path-1"></use>
                </mask>
                <g id="Combined-Shape" stroke="#A5F08C" mask="url(#mask-2)" stroke-width="20" fill="#FFFFFF">
                    <use mask="url(#mask-4)" xlink:href="#path-1"></use>
                </g>
                <path d="M132.725936,167.637685 L9.78282555,90.8143034 L-177.466588,390.476006 L138.66935,588.019665 L325.918764,288.357963 L185.938385,200.888513 C186.399824,199.389184 186.824687,197.886806 187.212975,196.381378 C189.191498,188.710466 190.180744,181.316451 190.180744,174.19911 C190.180744,169.454216 189.547627,165.065254 188.281372,161.032094 C187.015118,156.998935 185.155334,153.440317 182.701966,150.356136 C180.248599,147.271955 177.20172,144.860004 173.561238,143.120209 C169.920757,141.380415 165.726352,140.51053 160.977898,140.51053 C152.43068,140.51053 145.585095,143.120183 140.440937,148.339566 C135.296778,153.55895 132.724737,159.88538 132.724737,167.319048 C132.724737,167.4255 132.725137,167.531712 132.725936,167.637685 Z" id="Combined-Shape" fill="#A5F08C" mask="url(#mask-3)"></path>
                <path d="M138.897697,252.963957 C137.631442,251.856815 136.760905,250.82877 136.28606,249.879791 C135.811215,248.930812 135.573795,247.744606 135.573795,246.321138 C135.573795,245.213996 135.929924,244.106871 136.642192,242.999729 C137.35446,241.892587 138.185427,240.864542 139.135118,239.915563 C140.717936,238.175769 142.735999,235.882438 145.189367,233.035501 C147.642735,230.188565 150.135636,226.827649 152.668145,222.952652 C155.200653,219.077655 157.535275,214.807315 159.672079,210.141502 C161.808884,205.47569 163.352108,200.533166 164.301799,195.313782 C163.826954,195.471946 163.312545,195.551026 162.758559,195.551026 L161.215319,195.551026 C152.984665,195.551026 146.29736,192.822753 141.153201,187.366125 C136.009042,181.909497 132.249894,167.556291 132.249894,167.556291 L186.015411,200.207155 C186.015411,200.207155 170.553927,233.035466 165.014063,240.152807 C159.4742,247.270148 153.143023,253.833819 146.020342,259.844019 L138.897697,252.963957 Z" id=",-copy" fill="#FFFFFF" mask="url(#mask-3)"></path>
            </g>
        </g>
    </g>
</svg>