<?xml version="1.0" encoding="UTF-8"?>
<svg width="177px" height="41px" viewBox="0 0 177 41" version="1.1" xmlns="http://www.w3.org/2000/svg" xmlns:xlink="http://www.w3.org/1999/xlink">
    <!-- Generator: Sketch 44 (41411) - http://www.bohemiancoding.com/sketch -->
    <title>GetCoords logo</title>
    <desc>Created and owned by Andrew Haine.</desc>
    <defs>
        <path d="M25.4820618,0.221377241 C27.2271768,-0.407559743 28.5320573,0.569681744 28.3967007,2.40266434 L26.9228101,22.3619092 C26.7874057,24.1955378 25.2632718,26.1917234 23.5178287,26.8207786 L2.98048871,34.2224072 C1.23537376,34.8513442 -0.0695068219,33.8741027 0.0658498024,32.0411201 L1.5397405,12.0818752 C1.67514483,10.2482467 3.19927873,8.25206108 4.94472185,7.62300583 L25.4820618,0.221377241 Z" id="path-1"></path>
        <path d="M25.4820618,0.221377241 C27.2271768,-0.407559743 28.5320573,0.569681744 28.3967007,2.40266434 L26.9228101,22.3619092 C26.7874057,24.1955378 25.2632718,26.1917234 23.5178287,26.8207786 L2.98048871,34.2224072 C1.23537376,34.8513442 -0.0695068219,33.8741027 0.0658498024,32.0411201 L1.5397405,12.0818752 C1.67514483,10.2482467 3.19927873,8.25206108 4.94472185,7.62300583 L25.4820618,0.221377241 Z" id="path-3"></path>
        <path d="M25.4820618,0.221377241 C27.2271768,-0.407559743 28.5320573,0.569681744 28.3967007,2.40266434 L26.9228101,22.3619092 C26.7874057,24.1955378 25.2632718,26.1917234 23.5178287,26.8207786 L2.98048871,34.2224072 C1.23537376,34.8513442 -0.0695068219,33.8741027 0.0658498024,32.0411201 L1.5397405,12.0818752 C1.67514483,10.2482467 3.19927873,8.25206108 4.94472185,7.62300583 L25.4820618,0.221377241 Z" id="path-5"></path>
        <path d="M21.3322621,0.190663926 C22.7964112,-0.337013366 23.8912042,0.482890941 23.7776402,2.0207609 L22.5410479,18.7665408 C22.4274439,20.3049527 21.1486975,21.9797498 19.6842731,22.5075262 L2.45347217,28.7174828 C0.989323054,29.2451601 -0.105470021,28.4252558 0.00809400635,26.8873858 L1.24468634,10.141606 C1.35829039,8.60319402 2.63703671,6.92839698 4.10146116,6.40062046 L21.3322621,0.190663926 Z" id="path-7"></path>
    </defs>
    <g id="Page-1" stroke="none" stroke-width="1" fill="none" fill-rule="evenodd">
        <g id="Artboard-2">
            <g id="Group" transform="translate(5.000000, 3.000000)">
                <g id="Logo-1">
                    <g id="Combined-Shape-Clipped">
                        <mask id="mask-2" fill="white">
                            <use xlink:href="#path-1"></use>
                        </mask>
                        <g id="path-1"></g>
                        <g id="Combined-Shape" mask="url(#mask-2)">
                            <g id="path-1-Clipped">
                                <mask id="mask-4" fill="white">
                                    <use xlink:href="#path-3"></use>
                                </mask>
                                <g id="path-1"></g>
                                <path d="M25.4820618,0.221377241 C27.2271768,-0.407559743 28.5320573,0.569681744 28.3967007,2.40266434 L26.9228101,22.3619092 C26.7874057,24.1955378 25.2632718,26.1917234 23.5178287,26.8207786 L2.98048871,34.2224072 C1.23537376,34.8513442 -0.0695068219,33.8741027 0.0658498024,32.0411201 L1.5397405,12.0818752 C1.67514483,10.2482467 3.19927873,8.25206108 4.94472185,7.62300583 L25.4820618,0.221377241 Z" id="path-1" stroke="#A5F08C" stroke-width="4" fill="#FFFFFF" fill-rule="nonzero" mask="url(#mask-4)"></path>
                            </g>
                        </g>
                    </g>
                    <g id="Combined-Shape-Clipped">
                        <mask id="mask-6" fill="white">
                            <use xlink:href="#path-5"></use>
                        </mask>
                        <g id="path-1"></g>
                        <path d="M11.74492,14.6886928 L0.865682373,7.95730032 L-15.7040209,34.2141571 L12.2708528,51.5232611 L28.8405561,25.2664044 L16.4536904,17.6021857 C16.4945231,17.470812 16.5321192,17.3391711 16.5664788,17.207263 C16.7415584,16.5351249 16.8290968,15.887249 16.8290968,15.2636158 C16.8290968,14.8478603 16.7730722,14.4632921 16.6610213,14.1098999 C16.5489705,13.7565078 16.3843982,13.4446958 16.1672996,13.1744547 C15.9502011,12.9042137 15.6805827,12.6928745 15.3584364,12.5404308 C15.0362902,12.3879871 14.6651273,12.3117664 14.2449365,12.3117664 C13.4885931,12.3117664 12.8828271,12.5404285 12.4276205,12.9977595 C11.9724138,13.4550906 11.7448139,14.0094229 11.7448139,14.6607733 C11.7448139,14.6701008 11.7448493,14.6794073 11.74492,14.6886928 Z" id="Combined-Shape" fill="#A5F08C" fill-rule="nonzero" mask="url(#mask-6)"></path>
                    </g>
                    <g id=",-copy-Clipped" transform="translate(4.620614, 0.000000)">
                        <mask id="mask-8" fill="white">
                            <use xlink:href="#path-7"></use>
                        </mask>
                        <g id="path-1"></g>
                        <path d="M7.67044548,22.1651227 C7.55839455,22.0681131 7.48136072,21.978034 7.43934168,21.8948829 C7.39732264,21.8117318 7.37631334,21.7077945 7.37631334,21.5830678 C7.37631334,21.4860582 7.4078272,21.3890501 7.47085581,21.2920404 C7.53388441,21.1950308 7.60741669,21.1049518 7.69145486,21.0218007 C7.83151845,20.869357 8.01009688,20.6684116 8.22719544,20.4189582 C8.44429401,20.1695049 8.66489086,19.8750159 8.88899262,19.5354822 C9.11309429,19.1959485 9.31968502,18.8217742 9.50877084,18.4129479 C9.69785674,18.0041217 9.83441666,17.5710496 9.91845483,17.1137185 C9.87643579,17.127577 9.83091573,17.1345062 9.7818935,17.1345062 L9.64533217,17.1345062 C8.91700148,17.1345062 8.32524176,16.8954503 7.87003506,16.4173315 C7.41482835,15.9392127 7.08218129,14.6815609 7.08218129,14.6815609 L11.8398927,17.5424839 C11.8398927,17.5424839 10.4717057,20.4189551 9.98148308,21.0425884 C9.49126052,21.6662217 8.93101458,22.2413414 8.30072843,22.7679652 L7.67044548,22.1651227 Z" id=",-copy" fill="#FFFFFF" fill-rule="nonzero" mask="url(#mask-8)"></path>
                    </g>
                </g>
                <text id="GetCoords" font-family="Oxygen-Regular, Oxygen" font-size="26" font-weight="normal">
                    <tspan x="39" y="27" fill="#FAF6F6">Get</tspan>
                    <tspan x="80.6279297" y="27" font-family="Oxygen-Bold, Oxygen" font-weight="bold" fill="#A5F08C">Coords</tspan>
                </text>
            </g>
        </g>
    </g>
</svg>
