<?xml version="1.0" encoding="UTF-8"?>
<svg width="177px" height="41px" viewBox="0 0 177 41" version="1.1" xmlns="http://www.w3.org/2000/svg" xmlns:xlink="http://www.w3.org/1999/xlink">
    <!-- Generator: Sketch 44 (41411) - http://www.bohemiancoding.com/sketch -->
    <title>Artboard 2</title>
    <desc>Created with Sketch.</desc>
    <defs>
        <path d="M25.4820618,0.221377241 C27.2271768,-0.407559743 28.5320573,0.569681744 28.3967007,2.40266434 L26.9228101,22.3619092 C26.7874057,24.1955378 25.2632718,26.1917234 23.5178287,26.8207786 L2.98048871,34.2224072 C1.23537376,34.8513442 -0.0695068219,33.8741027 0.0658498024,32.0411201 L1.5397405,12.0818752 C1.67514483,10.2482467 3.19927873,8.25206108 4.94472185,7.62300583 L25.4820618,0.221377241 Z" id="path-1"></path>
        <path d="M25.4820618,0.221377241 C27.2271768,-0.407559743 28.5320573,0.569681744 28.3967007,2.40266434 L26.9228101,22.3619092 C26.7874057,24.1955378 25.2632718,26.1917234 23.5178287,26.8207786 L2.98048871,34.2224072 C1.23537376,34.8513442 -0.0695068219,33.8741027 0.0658498024,32.0411201 L1.5397405,12.0818752 C1.67514483,10.2482467 3.19927873,8.25206108 4.94472185,7.62300583 L25.4820618,0.221377241 Z" id="path-3"></path>
        <path d="M25.4820618,0.221377241 C27.2271768,-0.407559743 28.5320573,0.569681744 28.3967007,2.40266434 L26.9228101,22.3619092 C26.7874057,24.1955378 25.2632718,26.1917234 23.5178287,26.8207786 L2.98048871,34.2224072 C1.23537376,34.8513442 -0.0695068219,33.8741027 0.0658498024,32.0411201 L1.5397405,12.0818752 C1.67514483,10.2482467 3.19927873,8.25206108 4.94472185,7.62300583 L25.4820618,0.221377241 Z" id="path-5"></path>
        <path d="M21.3322621,0.190663926 C22.7964112,-0.337013366 23.8912042,0.482890941 23.7776402,2.0207609 L22.5410479,18.7665408 C22.4274439,20.3049527 21.1486975,21.9797498 19.6842731,22.5075262 L2.45347217,28.7174828 C0.989323054,29.2451601 -0.105470021,28.4252558 0.00809400635,26.8873858 L1.24468634,10.141606 C1.35829039,8.60319402 2.63703671,6.92839698 4.10146116,6.40062046 L21.3322621,0.190663926 Z" id="path-7"></path>
    </defs>
    <g id="Page-1" stroke="none" stroke-width="1" fill="none" fill-rule="evenodd">
        <g id="Artboard-2">
            <g id="Group" transform="translate(5.000000, 3.000000)">
                <g id="Logo-1">
                    <g id="Combined-Shape-Clipped">
                        <mask id="mask-2" fill="white">
                            <use xlink:href="#path-1"></use>
                        </mask>
                        <g id="path-1"></g>
                        <g id="Combined-Shape" mask="url(#mask-2)">
                            <g id="path-1-Clipped">
                                <mask id="mask-4" fill="white">
                                    <use xlink:href="#path-3"></use>
                                </mask>
                                <g id="path-1"></g>
                                <path d="M25.4820618,0.221377241 C27.2271768,-0.407559743 28.5320573,0.569681744 28.3967007,2.40266434 L26.9228101,22.3619092 C26.7874057,24.1955378 25.2632718,26.1917234 23.5178287,26.8207786 L2.98048871,34.2224072 C1.23537376,34.8513442 -0.0695068219,33.8741027 0.0658498024,32.0411201 L1.5397405,12.0818752 C1.67514483,10.2482467 3.19927873,8.25206108 4.94472185,7.62300583 L25.4820618,0.221377241 Z" id="path-1" stroke="#A5F08C" stroke-width="4" fill="#FFFFFF" fill-rule="nonzero" mask="url(#mask-4)"></path>
                            </g>
                        </g>
                    </g>
                    <g id="Combined-Shape-Clipped">
                        <mask id="mask-6" fill="white">
                            <use xlink:href="#path-5"></use>
                        </mask>
                        <g id="path-1"></g>
                        <path d="M11.74492,14.6886928 L0.865682373,7.95730032 L-15.7040209,34.2141571 L12.2708528,51.5232611 L28.8405561,25.2664044 L16.4536904,17.6021857 C16.4945231,17.470812 16.5321192,17.3391711 16.5664788,17.207263 C16.7415584,16.5351249 16.8290968,15.887249 16.8290968,15.2636158 C16.8290968,14.8478603 16.7730722,14.4632921 16.6610213,14.1098999 C16.5489705,13.7565078 16.3843982,13.4446958 16.1672996,13.1744547 C15.9502011,12.9042137 15.6805827,12.6928745 15.3584364,12.5404308 C15.0362902,12.3879871 14.6651273,12.3117664 14.2449365,12.3117664 C13.4885931,12.3117664 12.8828271,12.5404285 12.4276205,12.9977595 C11.9724138,13.4550906 11.7448139,14.0094229 11.7448139,14.6607733 C11.7448139,14.6701008 11.7448493,14.6794073 11.74492,14.6886928 Z" id="Combined-Shape" fill="#A5F08C" fill-rule="nonzero" mask="url(#mask-6)"></path>
                    </g>
                    <g id=",-copy-Clipped" transform="translate(4.620614, 0.000000)">
                        <mask id="mask-8" fill="white">
                            <use xlink:href="#path-7"></use>
                        </mask>
                        <g id="path-1"></g>
                        <path d="M7.67044548,22.1651227 C7.55839455,22.0681131 7.48136072,21.978034 7.43934168,21.8948829 C7.39732264,21.8117318 7.37631334,21.7077945 7.37631334,21.5830678 C7.37631334,21.4860582 7.4078272,21.3890501 7.47085581,21.2920404 C7.53388441,21.1950308 7.60741669,21.1049518 7.69145486,21.0218007 C7.83151845,20.869357 8.01009688,20.6684116 8.22719544,20.4189582 C8.44429401,20.1695049 8.66489086,19.8750159 8.88899262,19.5354822 C9.11309429,19.1959485 9.31968502,18.8217742 9.50877084,18.4129479 C9.69785674,18.0041217 9.83441666,17.5710496 9.91845483,17.1137185 C9.87643579,17.127577 9.83091573,17.1345062 9.7818935,17.1345062 L9.64533217,17.1345062 C8.91700148,17.1345062 8.32524176,16.8954503 7.87003506,16.4173315 C7.41482835,15.9392127 7.08218129,14.6815609 7.08218129,14.6815609 L11.8398927,17.5424839 C11.8398927,17.5424839 10.4717057,20.4189551 9.98148308,21.0425884 C9.49126052,21.6662217 8.93101458,22.2413414 8.30072843,22.7679652 L7.67044548,22.1651227 Z" id=",-copy" fill="#FFFFFF" fill-rule="nonzero" mask="url(#mask-8)"></path>
                    </g>
                </g>
                <path d="M49.3974609,27.2792969 C47.9671152,27.2792969 46.6827856,27.0402042 45.5444336,26.5620117 C44.4060815,26.0838192 43.4666378,25.4152061 42.7260742,24.5561523 C41.9855106,23.6970986 41.418459,22.6793679 41.0249023,21.5029297 C40.6313457,20.3264915 40.4345703,19.0358143 40.4345703,17.6308594 C40.4345703,15.7350166 40.7942672,14.0592521 41.5136719,12.6035156 C42.2330765,11.1477792 43.3037038,10.0009808 44.7255859,9.16308594 C46.147468,8.32519112 47.831696,7.90625 49.7783203,7.90625 C51.9365342,7.90625 53.8323486,8.39713051 55.4658203,9.37890625 L54.6279297,11.1943359 C53.0537031,10.2887325 51.4456462,9.8359375 49.8037109,9.8359375 C48.6611271,9.8359375 47.6391647,10.0327129 46.737793,10.4262695 C45.8364213,10.8198262 45.1001005,11.3657192 44.5288086,12.0639648 C43.9575167,12.7622105 43.5216486,13.5831659 43.2211914,14.5268555 C42.9207342,15.4705451 42.7705078,16.5052027 42.7705078,17.6308594 C42.7705078,20.0175901 43.3650657,21.9028251 44.5541992,23.2866211 C45.7433328,24.6704171 47.4973842,25.3623047 49.8164062,25.3623047 C51.1367254,25.3623047 52.4781833,25.0957058 53.8408203,24.5625 L53.8408203,19.2050781 L49.4101562,19.2050781 L49.4863281,17.2880859 L55.8974609,17.2880859 L55.8974609,25.8701172 C54.8310494,26.3779322 53.8006235,26.739745 52.8061523,26.9555664 C51.8116812,27.1713878 50.6754621,27.2792969 49.3974609,27.2792969 Z M64.8349609,14.5332031 C63.7516222,14.5332031 62.8671909,14.9161746 62.1816406,15.6821289 C61.4960903,16.4480833 61.0940761,17.4954361 60.9755859,18.8242188 L68.3261719,18.8242188 C68.3261719,17.4446546 68.0151398,16.3846066 67.3930664,15.644043 C66.770993,14.9034794 65.9182997,14.5332031 64.8349609,14.5332031 Z M65.2539062,27.2919922 C63.2311097,27.2919922 61.6378639,26.6487695 60.4741211,25.3623047 C59.3103783,24.0758399 58.7285156,22.3154409 58.7285156,20.0810547 C58.7285156,17.9228408 59.2913355,16.173021 60.4169922,14.831543 C61.5426489,13.4900649 63.0237538,12.8066408 64.8603516,12.78125 C66.5869227,12.78125 67.9558869,13.3715761 68.9672852,14.5522461 C69.9786834,15.7329161 70.484375,17.3092349 70.484375,19.28125 C70.484375,19.382813 70.4822591,19.5690091 70.4780273,19.8398438 C70.4737956,20.1106784 70.4716797,20.3053379 70.4716797,20.4238281 L60.9121094,20.4238281 C60.9375001,22.0065183 61.3458619,23.2400672 62.137207,24.1245117 C62.9285521,25.0089562 63.9928319,25.4511719 65.3300781,25.4511719 C66.8027417,25.4511719 68.279615,25.0618529 69.7607422,24.2832031 L70.0908203,25.9970703 C68.6774018,26.8603559 67.0651132,27.2919922 65.2539062,27.2919922 Z M77.8730469,27.2539062 C76.5019463,27.2539062 75.5286487,26.9195997 74.953125,26.2509766 C74.3776013,25.5823534 74.0729168,24.5032627 74.0390625,23.0136719 L74.0390625,14.6474609 L71.9697266,14.6474609 L72.0585938,13.2509766 L74.0263672,13.0732422 L74.75,9.88671875 L76.1464844,9.8359375 L76.1464844,13.0732422 L80.0185547,13.0732422 L80.0185547,14.6474609 L76.1464844,14.6474609 L76.1464844,22.6328125 C76.1464844,23.6907605 76.3072901,24.4355447 76.6289062,24.8671875 C76.9505224,25.2988303 77.5006471,25.5146484 78.2792969,25.5146484 C78.5585951,25.5146484 79.1637323,25.4469408 80.0947266,25.3115234 L80.1835938,26.9873047 C79.1764273,27.16504 78.4062527,27.2539062 77.8730469,27.2539062 Z M90.7460938,27.2666016 C88.0292833,27.2666016 85.8753335,26.4117924 84.2841797,24.7021484 C82.6930259,22.9925045 81.8974609,20.6312 81.8974609,17.6181641 C81.8974609,14.7574727 82.7289956,12.46176 84.3920898,10.730957 C86.0551841,9.00015411 88.2324084,8.13476562 90.9238281,8.13476562 C93.0989692,8.13476562 94.9397711,8.63834132 96.4462891,9.64550781 L95.3671875,12.2480469 C93.9199146,11.3593706 92.4642,10.9150391 91,10.9150391 C89.290356,10.9150391 87.9383188,11.5307556 86.9438477,12.762207 C85.9493765,13.9936585 85.4521484,15.6461485 85.4521484,17.7197266 C85.4521484,19.8694769 85.9324496,21.5325462 86.8930664,22.7089844 C87.8536832,23.8854225 89.2226474,24.4736328 91,24.4736328 C92.5572995,24.4736328 94.1018804,24.0843138 95.6337891,23.3056641 L96.0908203,25.9970703 C94.6689382,26.8434287 92.8873805,27.2666016 90.7460938,27.2666016 Z M104.914062,24.7402344 C106.039719,24.7402344 106.886065,24.3297567 107.453125,23.5087891 C108.020185,22.6878214 108.303711,21.5114009 108.303711,19.9794922 C108.303711,18.4306563 108.020185,17.2500041 107.453125,16.4375 C106.886065,15.6249959 106.031256,15.21875 104.888672,15.21875 C103.763015,15.21875 102.914554,15.6271118 102.343262,16.4438477 C101.77197,17.2605835 101.486328,18.4433516 101.486328,19.9921875 C101.486328,21.5156326 101.774086,22.6878214 102.349609,23.5087891 C102.925133,24.3297567 103.779942,24.7402344 104.914062,24.7402344 Z M104.825195,27.2666016 C102.760081,27.2666016 101.135097,26.5979885 99.9501953,25.2607422 C98.7652936,23.9234959 98.1728516,22.1630969 98.1728516,19.9794922 C98.1728516,17.7281788 98.7652936,15.9529687 99.9501953,14.6538086 C101.135097,13.3546485 102.80663,12.7050781 104.964844,12.7050781 C107.046885,12.7050781 108.678217,13.3673436 109.858887,14.6918945 C111.039557,16.0164454 111.629883,17.7789604 111.629883,19.9794922 C111.629883,22.2054148 111.033209,23.9763932 109.839844,25.2924805 C108.646478,26.6085678 106.974946,27.2666016 104.825195,27.2666016 Z M120.427734,24.7402344 C121.553391,24.7402344 122.399737,24.3297567 122.966797,23.5087891 C123.533857,22.6878214 123.817383,21.5114009 123.817383,19.9794922 C123.817383,18.4306563 123.533857,17.2500041 122.966797,16.4375 C122.399737,15.6249959 121.544928,15.21875 120.402344,15.21875 C119.276687,15.21875 118.428226,15.6271118 117.856934,16.4438477 C117.285642,17.2605835 117,18.4433516 117,19.9921875 C117,21.5156326 117.287758,22.6878214 117.863281,23.5087891 C118.438805,24.3297567 119.293614,24.7402344 120.427734,24.7402344 Z M120.338867,27.2666016 C118.273753,27.2666016 116.648769,26.5979885 115.463867,25.2607422 C114.278965,23.9234959 113.686523,22.1630969 113.686523,19.9794922 C113.686523,17.7281788 114.278965,15.9529687 115.463867,14.6538086 C116.648769,13.3546485 118.320302,12.7050781 120.478516,12.7050781 C122.560557,12.7050781 124.191889,13.3673436 125.372559,14.6918945 C126.553229,16.0164454 127.143555,17.7789604 127.143555,19.9794922 C127.143555,22.2054148 126.546881,23.9763932 125.353516,25.2924805 C124.16015,26.6085678 122.488618,27.2666016 120.338867,27.2666016 Z M129.873047,27 L129.873047,13.0478516 L132.666016,13.0478516 L133.097656,15.1806641 C134.011723,13.716464 135.336254,12.984375 137.071289,12.984375 C137.435223,12.984375 137.731444,13.0013019 137.959961,13.0351562 L137.90918,15.8154297 C137.570636,15.7646482 137.219403,15.7392578 136.855469,15.7392578 C135.628249,15.7392578 134.71208,16.0651009 134.106934,16.7167969 C133.501787,17.3684928 133.199219,18.2740827 133.199219,19.4335938 L133.199219,27 L129.873047,27 Z M145.056641,27.2666016 C143.23697,27.2666016 141.806646,26.5979885 140.765625,25.2607422 C139.724604,23.9234959 139.204102,22.1377065 139.204102,19.9033203 C139.204102,17.7366428 139.722488,15.9952865 140.759277,14.6791992 C141.796066,13.3631119 143.224275,12.7050781 145.043945,12.7050781 C147.024424,12.7050781 148.425126,13.4075451 149.246094,14.8125 C149.161458,13.9830688 149.119141,13.1832721 149.119141,12.4130859 L149.119141,7.90625 L152.445312,7.69042969 L152.445312,27 L149.563477,27 L149.195312,25.0957031 C149.051432,25.3242199 148.918132,25.5209953 148.79541,25.6860352 C148.672688,25.851075 148.49284,26.0415028 148.255859,26.2573242 C148.018879,26.4731456 147.762859,26.6466465 147.487793,26.777832 C147.212726,26.9090176 146.865725,27.0232743 146.446777,27.1206055 C146.02783,27.2179367 145.564456,27.2666016 145.056641,27.2666016 Z M145.84375,24.7402344 C144.819656,24.7402344 144.00928,24.3339884 143.412598,23.5214844 C142.815915,22.7089803 142.517578,21.5283281 142.517578,19.9794922 C142.517578,18.4221927 142.815915,17.2436563 143.412598,16.4438477 C144.00928,15.644039 144.806961,15.2441406 145.805664,15.2441406 C146.948248,15.2441406 147.807289,15.6376914 148.382812,16.4248047 C148.958336,17.211918 149.246094,18.4645096 149.246094,20.1826172 C149.212239,23.2210438 148.078136,24.7402344 145.84375,24.7402344 Z M160.303711,27.2539062 C158.24706,27.2539062 156.600918,26.9026728 155.365234,26.2001953 L155.708008,23.6992188 C156.266604,24.0039078 156.977535,24.2768543 157.84082,24.5180664 C158.704106,24.7592785 159.491207,24.8798828 160.202148,24.8798828 C160.93848,24.8798828 161.511879,24.7423516 161.922363,24.4672852 C162.332847,24.1922187 162.542318,23.7880886 162.550781,23.2548828 C162.550781,22.7724585 162.358238,22.391603 161.973145,22.1123047 C161.588051,21.8330064 160.853847,21.4860047 159.770508,21.0712891 C159.39811,20.9358717 159.156902,20.8470054 159.046875,20.8046875 C157.76041,20.305336 156.833662,19.7488637 156.266602,19.1352539 C155.699541,18.5216441 155.416016,17.6901094 155.416016,16.640625 C155.416016,15.3710874 155.875158,14.3977898 156.793457,13.7207031 C157.711756,13.0436164 158.991854,12.7050781 160.633789,12.7050781 C162.411142,12.7050781 163.97265,13.0393847 165.318359,13.7080078 L164.493164,16.0058594 C163.164381,15.3880177 161.899095,15.0791016 160.697266,15.0791016 C160.028642,15.0791016 159.506024,15.1912424 159.129395,15.4155273 C158.752765,15.6398123 158.564453,15.9804665 158.564453,16.4375 C158.564453,16.8691428 158.746417,17.2055652 159.110352,17.4467773 C159.474286,17.6879895 160.185216,18.0032533 161.243164,18.3925781 C161.277018,18.4010417 161.387043,18.4391273 161.573242,18.5068359 C161.759441,18.5745446 161.90332,18.6295571 162.004883,18.671875 C163.282884,19.1373721 164.222328,19.6938444 164.823242,20.3413086 C165.424157,20.9887728 165.724609,21.8330026 165.724609,22.8740234 C165.716146,24.2705148 165.242192,25.3496056 164.302734,26.1113281 C163.363277,26.8730507 162.030282,27.2539062 160.303711,27.2539062 Z" id="GetCoords" fill="#FAF6F6"></path>
                <path d="M90.7460938,27.2666016 C88.0292833,27.2666016 85.8753335,26.4117924 84.2841797,24.7021484 C82.6930259,22.9925045 81.8974609,20.6312 81.8974609,17.6181641 C81.8974609,14.7574727 82.7289956,12.46176 84.3920898,10.730957 C86.0551841,9.00015411 88.2324084,8.13476562 90.9238281,8.13476562 C93.0989692,8.13476562 94.9397711,8.63834132 96.4462891,9.64550781 L95.3671875,12.2480469 C93.9199146,11.3593706 92.4642,10.9150391 91,10.9150391 C89.290356,10.9150391 87.9383188,11.5307556 86.9438477,12.762207 C85.9493765,13.9936585 85.4521484,15.6461485 85.4521484,17.7197266 C85.4521484,19.8694769 85.9324496,21.5325462 86.8930664,22.7089844 C87.8536832,23.8854225 89.2226474,24.4736328 91,24.4736328 C92.5572995,24.4736328 94.1018804,24.0843138 95.6337891,23.3056641 L96.0908203,25.9970703 C94.6689382,26.8434287 92.8873805,27.2666016 90.7460938,27.2666016 Z M104.914062,24.7402344 C106.039719,24.7402344 106.886065,24.3297567 107.453125,23.5087891 C108.020185,22.6878214 108.303711,21.5114009 108.303711,19.9794922 C108.303711,18.4306563 108.020185,17.2500041 107.453125,16.4375 C106.886065,15.6249959 106.031256,15.21875 104.888672,15.21875 C103.763015,15.21875 102.914554,15.6271118 102.343262,16.4438477 C101.77197,17.2605835 101.486328,18.4433516 101.486328,19.9921875 C101.486328,21.5156326 101.774086,22.6878214 102.349609,23.5087891 C102.925133,24.3297567 103.779942,24.7402344 104.914062,24.7402344 Z M104.825195,27.2666016 C102.760081,27.2666016 101.135097,26.5979885 99.9501953,25.2607422 C98.7652936,23.9234959 98.1728516,22.1630969 98.1728516,19.9794922 C98.1728516,17.7281788 98.7652936,15.9529687 99.9501953,14.6538086 C101.135097,13.3546485 102.80663,12.7050781 104.964844,12.7050781 C107.046885,12.7050781 108.678217,13.3673436 109.858887,14.6918945 C111.039557,16.0164454 111.629883,17.7789604 111.629883,19.9794922 C111.629883,22.2054148 111.033209,23.9763932 109.839844,25.2924805 C108.646478,26.6085678 106.974946,27.2666016 104.825195,27.2666016 Z M120.427734,24.7402344 C121.553391,24.7402344 122.399737,24.3297567 122.966797,23.5087891 C123.533857,22.6878214 123.817383,21.5114009 123.817383,19.9794922 C123.817383,18.4306563 123.533857,17.2500041 122.966797,16.4375 C122.399737,15.6249959 121.544928,15.21875 120.402344,15.21875 C119.276687,15.21875 118.428226,15.6271118 117.856934,16.4438477 C117.285642,17.2605835 117,18.4433516 117,19.9921875 C117,21.5156326 117.287758,22.6878214 117.863281,23.5087891 C118.438805,24.3297567 119.293614,24.7402344 120.427734,24.7402344 Z M120.338867,27.2666016 C118.273753,27.2666016 116.648769,26.5979885 115.463867,25.2607422 C114.278965,23.9234959 113.686523,22.1630969 113.686523,19.9794922 C113.686523,17.7281788 114.278965,15.9529687 115.463867,14.6538086 C116.648769,13.3546485 118.320302,12.7050781 120.478516,12.7050781 C122.560557,12.7050781 124.191889,13.3673436 125.372559,14.6918945 C126.553229,16.0164454 127.143555,17.7789604 127.143555,19.9794922 C127.143555,22.2054148 126.546881,23.9763932 125.353516,25.2924805 C124.16015,26.6085678 122.488618,27.2666016 120.338867,27.2666016 Z M129.873047,27 L129.873047,13.0478516 L132.666016,13.0478516 L133.097656,15.1806641 C134.011723,13.716464 135.336254,12.984375 137.071289,12.984375 C137.435223,12.984375 137.731444,13.0013019 137.959961,13.0351562 L137.90918,15.8154297 C137.570636,15.7646482 137.219403,15.7392578 136.855469,15.7392578 C135.628249,15.7392578 134.71208,16.0651009 134.106934,16.7167969 C133.501787,17.3684928 133.199219,18.2740827 133.199219,19.4335938 L133.199219,27 L129.873047,27 Z M145.056641,27.2666016 C143.23697,27.2666016 141.806646,26.5979885 140.765625,25.2607422 C139.724604,23.9234959 139.204102,22.1377065 139.204102,19.9033203 C139.204102,17.7366428 139.722488,15.9952865 140.759277,14.6791992 C141.796066,13.3631119 143.224275,12.7050781 145.043945,12.7050781 C147.024424,12.7050781 148.425126,13.4075451 149.246094,14.8125 C149.161458,13.9830688 149.119141,13.1832721 149.119141,12.4130859 L149.119141,7.90625 L152.445312,7.69042969 L152.445312,27 L149.563477,27 L149.195312,25.0957031 C149.051432,25.3242199 148.918132,25.5209953 148.79541,25.6860352 C148.672688,25.851075 148.49284,26.0415028 148.255859,26.2573242 C148.018879,26.4731456 147.762859,26.6466465 147.487793,26.777832 C147.212726,26.9090176 146.865725,27.0232743 146.446777,27.1206055 C146.02783,27.2179367 145.564456,27.2666016 145.056641,27.2666016 Z M145.84375,24.7402344 C144.819656,24.7402344 144.00928,24.3339884 143.412598,23.5214844 C142.815915,22.7089803 142.517578,21.5283281 142.517578,19.9794922 C142.517578,18.4221927 142.815915,17.2436563 143.412598,16.4438477 C144.00928,15.644039 144.806961,15.2441406 145.805664,15.2441406 C146.948248,15.2441406 147.807289,15.6376914 148.382812,16.4248047 C148.958336,17.211918 149.246094,18.4645096 149.246094,20.1826172 C149.212239,23.2210438 148.078136,24.7402344 145.84375,24.7402344 Z M160.303711,27.2539062 C158.24706,27.2539062 156.600918,26.9026728 155.365234,26.2001953 L155.708008,23.6992188 C156.266604,24.0039078 156.977535,24.2768543 157.84082,24.5180664 C158.704106,24.7592785 159.491207,24.8798828 160.202148,24.8798828 C160.93848,24.8798828 161.511879,24.7423516 161.922363,24.4672852 C162.332847,24.1922187 162.542318,23.7880886 162.550781,23.2548828 C162.550781,22.7724585 162.358238,22.391603 161.973145,22.1123047 C161.588051,21.8330064 160.853847,21.4860047 159.770508,21.0712891 C159.39811,20.9358717 159.156902,20.8470054 159.046875,20.8046875 C157.76041,20.305336 156.833662,19.7488637 156.266602,19.1352539 C155.699541,18.5216441 155.416016,17.6901094 155.416016,16.640625 C155.416016,15.3710874 155.875158,14.3977898 156.793457,13.7207031 C157.711756,13.0436164 158.991854,12.7050781 160.633789,12.7050781 C162.411142,12.7050781 163.97265,13.0393847 165.318359,13.7080078 L164.493164,16.0058594 C163.164381,15.3880177 161.899095,15.0791016 160.697266,15.0791016 C160.028642,15.0791016 159.506024,15.1912424 159.129395,15.4155273 C158.752765,15.6398123 158.564453,15.9804665 158.564453,16.4375 C158.564453,16.8691428 158.746417,17.2055652 159.110352,17.4467773 C159.474286,17.6879895 160.185216,18.0032533 161.243164,18.3925781 C161.277018,18.4010417 161.387043,18.4391273 161.573242,18.5068359 C161.759441,18.5745446 161.90332,18.6295571 162.004883,18.671875 C163.282884,19.1373721 164.222328,19.6938444 164.823242,20.3413086 C165.424157,20.9887728 165.724609,21.8330026 165.724609,22.8740234 C165.716146,24.2705148 165.242192,25.3496056 164.302734,26.1113281 C163.363277,26.8730507 162.030282,27.2539062 160.303711,27.2539062 Z" id="GetCoords" fill="#A5F08C"></path>
            </g>
        </g>
    </g>
</svg>